<mxfile host="app.diagrams.net" agent="Mozilla/5.0 (Windows NT 10.0; Win64; x64) AppleWebKit/537.36 (KHTML, like Gecko) Chrome/134.0.0.0 Safari/537.36" version="26.2.3">
  <diagram id="C5RBs43oDa-KdzZeNtuy" name="Page-1">
    <mxGraphModel dx="932" dy="1656" grid="1" gridSize="10" guides="1" tooltips="1" connect="1" arrows="1" fold="1" page="1" pageScale="1" pageWidth="827" pageHeight="1169" math="0" shadow="0">
      <root>
        <mxCell id="WIyWlLk6GJQsqaUBKTNV-0" />
        <mxCell id="WIyWlLk6GJQsqaUBKTNV-1" parent="WIyWlLk6GJQsqaUBKTNV-0" />
        <mxCell id="vBjpvhSva4mqs9_Zegs--6" value="" style="edgeStyle=none;curved=1;rounded=0;orthogonalLoop=1;jettySize=auto;html=1;fontSize=12;startSize=8;endSize=8;" edge="1" parent="WIyWlLk6GJQsqaUBKTNV-1" source="vBjpvhSva4mqs9_Zegs--0" target="vBjpvhSva4mqs9_Zegs--5">
          <mxGeometry relative="1" as="geometry" />
        </mxCell>
        <mxCell id="vBjpvhSva4mqs9_Zegs--0" value="INICIO" style="strokeWidth=2;html=1;shape=mxgraph.flowchart.start_1;whiteSpace=wrap;fillColor=#d5e8d4;strokeColor=#82b366;" vertex="1" parent="WIyWlLk6GJQsqaUBKTNV-1">
          <mxGeometry x="320" y="400" width="100" height="60" as="geometry" />
        </mxCell>
        <mxCell id="vBjpvhSva4mqs9_Zegs--1" value="FIM" style="strokeWidth=2;html=1;shape=mxgraph.flowchart.start_1;whiteSpace=wrap;fillColor=#d5e8d4;strokeColor=#82b366;" vertex="1" parent="WIyWlLk6GJQsqaUBKTNV-1">
          <mxGeometry x="320" y="2010" width="100" height="60" as="geometry" />
        </mxCell>
        <mxCell id="vBjpvhSva4mqs9_Zegs--12" style="edgeStyle=none;curved=1;rounded=0;orthogonalLoop=1;jettySize=auto;html=1;exitX=0.5;exitY=1;exitDx=0;exitDy=0;entryX=0.5;entryY=0;entryDx=0;entryDy=0;fontSize=12;startSize=8;endSize=8;" edge="1" parent="WIyWlLk6GJQsqaUBKTNV-1" source="vBjpvhSva4mqs9_Zegs--4" target="vBjpvhSva4mqs9_Zegs--11">
          <mxGeometry relative="1" as="geometry" />
        </mxCell>
        <mxCell id="vBjpvhSva4mqs9_Zegs--17" style="edgeStyle=orthogonalEdgeStyle;rounded=0;orthogonalLoop=1;jettySize=auto;html=1;exitX=0;exitY=0.5;exitDx=0;exitDy=0;entryX=0;entryY=0.5;entryDx=0;entryDy=0;fontSize=12;startSize=8;endSize=8;" edge="1" parent="WIyWlLk6GJQsqaUBKTNV-1" source="vBjpvhSva4mqs9_Zegs--4" target="vBjpvhSva4mqs9_Zegs--2">
          <mxGeometry relative="1" as="geometry" />
        </mxCell>
        <mxCell id="vBjpvhSva4mqs9_Zegs--4" value="COLUNA=0; COLUNA &amp;lt; 3; COLUNA++" style="shape=hexagon;perimeter=hexagonPerimeter2;whiteSpace=wrap;html=1;fixedSize=1;fillColor=#fff2cc;strokeColor=#d6b656;" vertex="1" parent="WIyWlLk6GJQsqaUBKTNV-1">
          <mxGeometry x="270" y="670" width="200" height="50" as="geometry" />
        </mxCell>
        <mxCell id="vBjpvhSva4mqs9_Zegs--7" value="" style="edgeStyle=none;curved=1;rounded=0;orthogonalLoop=1;jettySize=auto;html=1;fontSize=12;startSize=8;endSize=8;" edge="1" parent="WIyWlLk6GJQsqaUBKTNV-1" source="vBjpvhSva4mqs9_Zegs--2" target="vBjpvhSva4mqs9_Zegs--4">
          <mxGeometry relative="1" as="geometry" />
        </mxCell>
        <mxCell id="vBjpvhSva4mqs9_Zegs--5" value="MATRIZ-A[3][3]&lt;div&gt;MATRIZ-B[3][3]&lt;/div&gt;&lt;div&gt;MATRIZ-C[3][3]&lt;/div&gt;" style="rounded=1;whiteSpace=wrap;html=1;absoluteArcSize=1;arcSize=14;strokeWidth=2;fillColor=#f5f5f5;fontColor=#333333;strokeColor=#666666;" vertex="1" parent="WIyWlLk6GJQsqaUBKTNV-1">
          <mxGeometry x="320" y="490" width="100" height="60" as="geometry" />
        </mxCell>
        <mxCell id="vBjpvhSva4mqs9_Zegs--8" value="" style="edgeStyle=none;curved=1;rounded=0;orthogonalLoop=1;jettySize=auto;html=1;fontSize=12;startSize=8;endSize=8;" edge="1" parent="WIyWlLk6GJQsqaUBKTNV-1" source="vBjpvhSva4mqs9_Zegs--5" target="vBjpvhSva4mqs9_Zegs--2">
          <mxGeometry relative="1" as="geometry">
            <mxPoint x="370" y="550" as="sourcePoint" />
            <mxPoint x="370" y="670" as="targetPoint" />
          </mxGeometry>
        </mxCell>
        <mxCell id="vBjpvhSva4mqs9_Zegs--2" value="LINHA=0; LINHA &amp;lt; 3; LINHA++" style="shape=hexagon;perimeter=hexagonPerimeter2;whiteSpace=wrap;html=1;fixedSize=1;fillColor=#fff2cc;strokeColor=#d6b656;" vertex="1" parent="WIyWlLk6GJQsqaUBKTNV-1">
          <mxGeometry x="270" y="584.5" width="200" height="50" as="geometry" />
        </mxCell>
        <mxCell id="vBjpvhSva4mqs9_Zegs--39" style="edgeStyle=orthogonalEdgeStyle;rounded=0;orthogonalLoop=1;jettySize=auto;html=1;exitX=1;exitY=0.5;exitDx=0;exitDy=0;entryX=1;entryY=0.5;entryDx=0;entryDy=0;fontSize=12;startSize=8;endSize=8;" edge="1" parent="WIyWlLk6GJQsqaUBKTNV-1" source="vBjpvhSva4mqs9_Zegs--9" target="vBjpvhSva4mqs9_Zegs--30">
          <mxGeometry relative="1" as="geometry">
            <Array as="points">
              <mxPoint x="550" y="1475" />
              <mxPoint x="550" y="1380" />
            </Array>
          </mxGeometry>
        </mxCell>
        <mxCell id="vBjpvhSva4mqs9_Zegs--9" value="MATRIZ-C[LINHA][COLUNA] = MATRIZ-A[LINHA][COLUNA] + MATRIZ-B[LINHA][COLUNA]" style="rounded=1;whiteSpace=wrap;html=1;absoluteArcSize=1;arcSize=14;strokeWidth=2;fillColor=#f5f5f5;fontColor=#333333;strokeColor=#666666;" vertex="1" parent="WIyWlLk6GJQsqaUBKTNV-1">
          <mxGeometry x="202.5" y="1440" width="335" height="70" as="geometry" />
        </mxCell>
        <mxCell id="vBjpvhSva4mqs9_Zegs--16" style="edgeStyle=orthogonalEdgeStyle;rounded=0;orthogonalLoop=1;jettySize=auto;html=1;exitX=1;exitY=0.5;exitDx=0;exitDy=0;entryX=1;entryY=0.5;entryDx=0;entryDy=0;fontSize=12;startSize=8;endSize=8;" edge="1" parent="WIyWlLk6GJQsqaUBKTNV-1" source="vBjpvhSva4mqs9_Zegs--11" target="vBjpvhSva4mqs9_Zegs--4">
          <mxGeometry relative="1" as="geometry">
            <Array as="points">
              <mxPoint x="510" y="775" />
              <mxPoint x="510" y="695" />
            </Array>
          </mxGeometry>
        </mxCell>
        <mxCell id="vBjpvhSva4mqs9_Zegs--11" value="&lt;div&gt;&lt;span style=&quot;color: rgb(51, 51, 51); font-family: Helvetica; font-size: 12px; font-style: normal; font-variant-ligatures: normal; font-variant-caps: normal; font-weight: 400; letter-spacing: normal; orphans: 2; text-align: center; text-indent: 0px; text-transform: none; widows: 2; word-spacing: 0px; -webkit-text-stroke-width: 0px; white-space: normal; background-color: rgb(236, 236, 236); text-decoration-thickness: initial; text-decoration-style: initial; text-decoration-color: initial; float: none; display: inline !important;&quot;&gt;&lt;br&gt;&lt;/span&gt;&lt;/div&gt;&lt;span style=&quot;color: rgb(51, 51, 51); font-family: Helvetica; font-size: 12px; font-style: normal; font-variant-ligatures: normal; font-variant-caps: normal; font-weight: 400; letter-spacing: normal; orphans: 2; text-align: center; text-indent: 0px; text-transform: none; widows: 2; word-spacing: 0px; -webkit-text-stroke-width: 0px; white-space: normal; background-color: rgb(236, 236, 236); text-decoration-thickness: initial; text-decoration-style: initial; text-decoration-color: initial; float: none; display: inline !important;&quot;&gt;&lt;div&gt;&lt;span style=&quot;color: rgb(51, 51, 51); font-family: Helvetica; font-size: 12px; font-style: normal; font-variant-ligatures: normal; font-variant-caps: normal; font-weight: 400; letter-spacing: normal; orphans: 2; text-align: center; text-indent: 0px; text-transform: none; widows: 2; word-spacing: 0px; -webkit-text-stroke-width: 0px; white-space: normal; background-color: rgb(236, 236, 236); text-decoration-thickness: initial; text-decoration-style: initial; text-decoration-color: initial; float: none; display: inline !important;&quot;&gt;&lt;br&gt;&lt;/span&gt;&lt;/div&gt;MATRIZ-A[LINHA][COLUNA]&lt;/span&gt;&lt;div&gt;&lt;br/&gt;&lt;/div&gt;" style="html=1;strokeWidth=2;shape=manualInput;whiteSpace=wrap;rounded=1;size=26;arcSize=11;fillColor=#dae8fc;strokeColor=#6c8ebf;" vertex="1" parent="WIyWlLk6GJQsqaUBKTNV-1">
          <mxGeometry x="310" y="740" width="120" height="70" as="geometry" />
        </mxCell>
        <mxCell id="vBjpvhSva4mqs9_Zegs--27" style="edgeStyle=none;curved=1;rounded=0;orthogonalLoop=1;jettySize=auto;html=1;exitX=0.5;exitY=1;exitDx=0;exitDy=0;exitPerimeter=0;entryX=0.5;entryY=0;entryDx=0;entryDy=0;fontSize=12;startSize=8;endSize=8;" edge="1" parent="WIyWlLk6GJQsqaUBKTNV-1" source="vBjpvhSva4mqs9_Zegs--14" target="vBjpvhSva4mqs9_Zegs--22">
          <mxGeometry relative="1" as="geometry" />
        </mxCell>
        <mxCell id="vBjpvhSva4mqs9_Zegs--14" value="" style="verticalLabelPosition=bottom;verticalAlign=top;html=1;shape=mxgraph.flowchart.on-page_reference;fillColor=#f5f5f5;gradientColor=#b3b3b3;strokeColor=#666666;" vertex="1" parent="WIyWlLk6GJQsqaUBKTNV-1">
          <mxGeometry x="350" y="850" width="40" height="40" as="geometry" />
        </mxCell>
        <mxCell id="vBjpvhSva4mqs9_Zegs--15" style="edgeStyle=orthogonalEdgeStyle;rounded=0;orthogonalLoop=1;jettySize=auto;html=1;exitX=1;exitY=0.5;exitDx=0;exitDy=0;entryX=1;entryY=0.5;entryDx=0;entryDy=0;entryPerimeter=0;fontSize=12;startSize=8;endSize=8;" edge="1" parent="WIyWlLk6GJQsqaUBKTNV-1" source="vBjpvhSva4mqs9_Zegs--2" target="vBjpvhSva4mqs9_Zegs--14">
          <mxGeometry relative="1" as="geometry">
            <Array as="points">
              <mxPoint x="540" y="610" />
              <mxPoint x="540" y="870" />
            </Array>
          </mxGeometry>
        </mxCell>
        <mxCell id="vBjpvhSva4mqs9_Zegs--18" style="edgeStyle=none;curved=1;rounded=0;orthogonalLoop=1;jettySize=auto;html=1;exitX=0.5;exitY=1;exitDx=0;exitDy=0;entryX=0.5;entryY=0;entryDx=0;entryDy=0;fontSize=12;startSize=8;endSize=8;" edge="1" parent="WIyWlLk6GJQsqaUBKTNV-1" source="vBjpvhSva4mqs9_Zegs--20" target="vBjpvhSva4mqs9_Zegs--24">
          <mxGeometry relative="1" as="geometry" />
        </mxCell>
        <mxCell id="vBjpvhSva4mqs9_Zegs--19" style="edgeStyle=orthogonalEdgeStyle;rounded=0;orthogonalLoop=1;jettySize=auto;html=1;exitX=0;exitY=0.5;exitDx=0;exitDy=0;entryX=0;entryY=0.5;entryDx=0;entryDy=0;fontSize=12;startSize=8;endSize=8;" edge="1" parent="WIyWlLk6GJQsqaUBKTNV-1" source="vBjpvhSva4mqs9_Zegs--20" target="vBjpvhSva4mqs9_Zegs--22">
          <mxGeometry relative="1" as="geometry" />
        </mxCell>
        <mxCell id="vBjpvhSva4mqs9_Zegs--20" value="COLUNA=0; COLUNA &amp;lt; 3; COLUNA++" style="shape=hexagon;perimeter=hexagonPerimeter2;whiteSpace=wrap;html=1;fixedSize=1;fillColor=#fff2cc;strokeColor=#d6b656;" vertex="1" parent="WIyWlLk6GJQsqaUBKTNV-1">
          <mxGeometry x="270" y="1015.5" width="200" height="50" as="geometry" />
        </mxCell>
        <mxCell id="vBjpvhSva4mqs9_Zegs--21" value="" style="edgeStyle=none;curved=1;rounded=0;orthogonalLoop=1;jettySize=auto;html=1;fontSize=12;startSize=8;endSize=8;" edge="1" parent="WIyWlLk6GJQsqaUBKTNV-1" source="vBjpvhSva4mqs9_Zegs--22" target="vBjpvhSva4mqs9_Zegs--20">
          <mxGeometry relative="1" as="geometry" />
        </mxCell>
        <mxCell id="vBjpvhSva4mqs9_Zegs--22" value="LINHA=0; LINHA &amp;lt; 3; LINHA++" style="shape=hexagon;perimeter=hexagonPerimeter2;whiteSpace=wrap;html=1;fixedSize=1;fillColor=#fff2cc;strokeColor=#d6b656;" vertex="1" parent="WIyWlLk6GJQsqaUBKTNV-1">
          <mxGeometry x="270" y="930" width="200" height="50" as="geometry" />
        </mxCell>
        <mxCell id="vBjpvhSva4mqs9_Zegs--23" style="edgeStyle=orthogonalEdgeStyle;rounded=0;orthogonalLoop=1;jettySize=auto;html=1;exitX=1;exitY=0.5;exitDx=0;exitDy=0;entryX=1;entryY=0.5;entryDx=0;entryDy=0;fontSize=12;startSize=8;endSize=8;" edge="1" parent="WIyWlLk6GJQsqaUBKTNV-1" source="vBjpvhSva4mqs9_Zegs--24" target="vBjpvhSva4mqs9_Zegs--20">
          <mxGeometry relative="1" as="geometry">
            <Array as="points">
              <mxPoint x="510" y="1120.5" />
              <mxPoint x="510" y="1040.5" />
            </Array>
          </mxGeometry>
        </mxCell>
        <mxCell id="vBjpvhSva4mqs9_Zegs--24" value="&lt;div&gt;&lt;span style=&quot;color: rgb(51, 51, 51); font-family: Helvetica; font-size: 12px; font-style: normal; font-variant-ligatures: normal; font-variant-caps: normal; font-weight: 400; letter-spacing: normal; orphans: 2; text-align: center; text-indent: 0px; text-transform: none; widows: 2; word-spacing: 0px; -webkit-text-stroke-width: 0px; white-space: normal; background-color: rgb(236, 236, 236); text-decoration-thickness: initial; text-decoration-style: initial; text-decoration-color: initial; float: none; display: inline !important;&quot;&gt;&lt;br&gt;&lt;/span&gt;&lt;/div&gt;&lt;span style=&quot;color: rgb(51, 51, 51); font-family: Helvetica; font-size: 12px; font-style: normal; font-variant-ligatures: normal; font-variant-caps: normal; font-weight: 400; letter-spacing: normal; orphans: 2; text-align: center; text-indent: 0px; text-transform: none; widows: 2; word-spacing: 0px; -webkit-text-stroke-width: 0px; white-space: normal; background-color: rgb(236, 236, 236); text-decoration-thickness: initial; text-decoration-style: initial; text-decoration-color: initial; float: none; display: inline !important;&quot;&gt;&lt;div&gt;&lt;span style=&quot;color: rgb(51, 51, 51); font-family: Helvetica; font-size: 12px; font-style: normal; font-variant-ligatures: normal; font-variant-caps: normal; font-weight: 400; letter-spacing: normal; orphans: 2; text-align: center; text-indent: 0px; text-transform: none; widows: 2; word-spacing: 0px; -webkit-text-stroke-width: 0px; white-space: normal; background-color: rgb(236, 236, 236); text-decoration-thickness: initial; text-decoration-style: initial; text-decoration-color: initial; float: none; display: inline !important;&quot;&gt;&lt;br&gt;&lt;/span&gt;&lt;/div&gt;MATRIZ-B[LINHA][COLUNA]&lt;/span&gt;&lt;div&gt;&lt;br&gt;&lt;/div&gt;" style="html=1;strokeWidth=2;shape=manualInput;whiteSpace=wrap;rounded=1;size=26;arcSize=11;fillColor=#dae8fc;strokeColor=#6c8ebf;" vertex="1" parent="WIyWlLk6GJQsqaUBKTNV-1">
          <mxGeometry x="310" y="1085.5" width="120" height="70" as="geometry" />
        </mxCell>
        <mxCell id="vBjpvhSva4mqs9_Zegs--37" style="edgeStyle=none;curved=1;rounded=0;orthogonalLoop=1;jettySize=auto;html=1;exitX=0.5;exitY=1;exitDx=0;exitDy=0;exitPerimeter=0;entryX=0.5;entryY=0;entryDx=0;entryDy=0;fontSize=12;startSize=8;endSize=8;" edge="1" parent="WIyWlLk6GJQsqaUBKTNV-1" source="vBjpvhSva4mqs9_Zegs--25" target="vBjpvhSva4mqs9_Zegs--32">
          <mxGeometry relative="1" as="geometry" />
        </mxCell>
        <mxCell id="vBjpvhSva4mqs9_Zegs--25" value="" style="verticalLabelPosition=bottom;verticalAlign=top;html=1;shape=mxgraph.flowchart.on-page_reference;fillColor=#f5f5f5;gradientColor=#b3b3b3;strokeColor=#666666;" vertex="1" parent="WIyWlLk6GJQsqaUBKTNV-1">
          <mxGeometry x="350" y="1195.5" width="40" height="40" as="geometry" />
        </mxCell>
        <mxCell id="vBjpvhSva4mqs9_Zegs--26" style="edgeStyle=orthogonalEdgeStyle;rounded=0;orthogonalLoop=1;jettySize=auto;html=1;exitX=1;exitY=0.5;exitDx=0;exitDy=0;entryX=1;entryY=0.5;entryDx=0;entryDy=0;entryPerimeter=0;fontSize=12;startSize=8;endSize=8;" edge="1" parent="WIyWlLk6GJQsqaUBKTNV-1" source="vBjpvhSva4mqs9_Zegs--22" target="vBjpvhSva4mqs9_Zegs--25">
          <mxGeometry relative="1" as="geometry">
            <Array as="points">
              <mxPoint x="540" y="955.5" />
              <mxPoint x="540" y="1215.5" />
            </Array>
          </mxGeometry>
        </mxCell>
        <mxCell id="vBjpvhSva4mqs9_Zegs--29" style="edgeStyle=orthogonalEdgeStyle;rounded=0;orthogonalLoop=1;jettySize=auto;html=1;exitX=0;exitY=0.5;exitDx=0;exitDy=0;entryX=0;entryY=0.5;entryDx=0;entryDy=0;fontSize=12;startSize=8;endSize=8;" edge="1" parent="WIyWlLk6GJQsqaUBKTNV-1" source="vBjpvhSva4mqs9_Zegs--30" target="vBjpvhSva4mqs9_Zegs--32">
          <mxGeometry relative="1" as="geometry" />
        </mxCell>
        <mxCell id="vBjpvhSva4mqs9_Zegs--38" style="edgeStyle=none;curved=1;rounded=0;orthogonalLoop=1;jettySize=auto;html=1;exitX=0.5;exitY=1;exitDx=0;exitDy=0;entryX=0.5;entryY=0;entryDx=0;entryDy=0;fontSize=12;startSize=8;endSize=8;" edge="1" parent="WIyWlLk6GJQsqaUBKTNV-1" source="vBjpvhSva4mqs9_Zegs--30" target="vBjpvhSva4mqs9_Zegs--9">
          <mxGeometry relative="1" as="geometry" />
        </mxCell>
        <mxCell id="vBjpvhSva4mqs9_Zegs--30" value="COLUNA=0; COLUNA &amp;lt; 3; COLUNA++" style="shape=hexagon;perimeter=hexagonPerimeter2;whiteSpace=wrap;html=1;fixedSize=1;fillColor=#fff2cc;strokeColor=#d6b656;" vertex="1" parent="WIyWlLk6GJQsqaUBKTNV-1">
          <mxGeometry x="270" y="1355.5" width="200" height="50" as="geometry" />
        </mxCell>
        <mxCell id="vBjpvhSva4mqs9_Zegs--31" value="" style="edgeStyle=none;curved=1;rounded=0;orthogonalLoop=1;jettySize=auto;html=1;fontSize=12;startSize=8;endSize=8;" edge="1" parent="WIyWlLk6GJQsqaUBKTNV-1" source="vBjpvhSva4mqs9_Zegs--32" target="vBjpvhSva4mqs9_Zegs--30">
          <mxGeometry relative="1" as="geometry" />
        </mxCell>
        <mxCell id="vBjpvhSva4mqs9_Zegs--32" value="LINHA=0; LINHA &amp;lt; 3; LINHA++" style="shape=hexagon;perimeter=hexagonPerimeter2;whiteSpace=wrap;html=1;fixedSize=1;fillColor=#fff2cc;strokeColor=#d6b656;" vertex="1" parent="WIyWlLk6GJQsqaUBKTNV-1">
          <mxGeometry x="270" y="1270" width="200" height="50" as="geometry" />
        </mxCell>
        <mxCell id="vBjpvhSva4mqs9_Zegs--46" style="edgeStyle=none;curved=1;rounded=0;orthogonalLoop=1;jettySize=auto;html=1;exitX=0.5;exitY=1;exitDx=0;exitDy=0;exitPerimeter=0;entryX=0.5;entryY=0;entryDx=0;entryDy=0;fontSize=12;startSize=8;endSize=8;" edge="1" parent="WIyWlLk6GJQsqaUBKTNV-1" source="vBjpvhSva4mqs9_Zegs--35" target="vBjpvhSva4mqs9_Zegs--44">
          <mxGeometry relative="1" as="geometry" />
        </mxCell>
        <mxCell id="vBjpvhSva4mqs9_Zegs--35" value="" style="verticalLabelPosition=bottom;verticalAlign=top;html=1;shape=mxgraph.flowchart.on-page_reference;fillColor=#f5f5f5;gradientColor=#b3b3b3;strokeColor=#666666;" vertex="1" parent="WIyWlLk6GJQsqaUBKTNV-1">
          <mxGeometry x="350" y="1535.5" width="40" height="40" as="geometry" />
        </mxCell>
        <mxCell id="vBjpvhSva4mqs9_Zegs--36" style="edgeStyle=orthogonalEdgeStyle;rounded=0;orthogonalLoop=1;jettySize=auto;html=1;exitX=1;exitY=0.5;exitDx=0;exitDy=0;entryX=1;entryY=0.5;entryDx=0;entryDy=0;entryPerimeter=0;fontSize=12;startSize=8;endSize=8;" edge="1" parent="WIyWlLk6GJQsqaUBKTNV-1" source="vBjpvhSva4mqs9_Zegs--32" target="vBjpvhSva4mqs9_Zegs--35">
          <mxGeometry relative="1" as="geometry">
            <Array as="points">
              <mxPoint x="560" y="1295" />
              <mxPoint x="560" y="1556" />
            </Array>
          </mxGeometry>
        </mxCell>
        <mxCell id="vBjpvhSva4mqs9_Zegs--41" style="edgeStyle=orthogonalEdgeStyle;rounded=0;orthogonalLoop=1;jettySize=auto;html=1;exitX=0;exitY=0.5;exitDx=0;exitDy=0;entryX=0;entryY=0.5;entryDx=0;entryDy=0;fontSize=12;startSize=8;endSize=8;" edge="1" parent="WIyWlLk6GJQsqaUBKTNV-1" source="vBjpvhSva4mqs9_Zegs--42" target="vBjpvhSva4mqs9_Zegs--44">
          <mxGeometry relative="1" as="geometry" />
        </mxCell>
        <mxCell id="vBjpvhSva4mqs9_Zegs--42" value="COLUNA=0; COLUNA &amp;lt; 3; COLUNA++" style="shape=hexagon;perimeter=hexagonPerimeter2;whiteSpace=wrap;html=1;fixedSize=1;fillColor=#fff2cc;strokeColor=#d6b656;" vertex="1" parent="WIyWlLk6GJQsqaUBKTNV-1">
          <mxGeometry x="270" y="1754" width="200" height="50" as="geometry" />
        </mxCell>
        <mxCell id="vBjpvhSva4mqs9_Zegs--43" value="" style="edgeStyle=none;curved=1;rounded=0;orthogonalLoop=1;jettySize=auto;html=1;fontSize=12;startSize=8;endSize=8;" edge="1" parent="WIyWlLk6GJQsqaUBKTNV-1" source="vBjpvhSva4mqs9_Zegs--47" target="vBjpvhSva4mqs9_Zegs--42">
          <mxGeometry relative="1" as="geometry" />
        </mxCell>
        <mxCell id="vBjpvhSva4mqs9_Zegs--44" value="LINHA=0; LINHA &amp;lt; 3; LINHA++" style="shape=hexagon;perimeter=hexagonPerimeter2;whiteSpace=wrap;html=1;fixedSize=1;fillColor=#fff2cc;strokeColor=#d6b656;" vertex="1" parent="WIyWlLk6GJQsqaUBKTNV-1">
          <mxGeometry x="270" y="1620" width="200" height="50" as="geometry" />
        </mxCell>
        <mxCell id="vBjpvhSva4mqs9_Zegs--48" value="" style="edgeStyle=none;curved=1;rounded=0;orthogonalLoop=1;jettySize=auto;html=1;fontSize=12;startSize=8;endSize=8;" edge="1" parent="WIyWlLk6GJQsqaUBKTNV-1" source="vBjpvhSva4mqs9_Zegs--44" target="vBjpvhSva4mqs9_Zegs--47">
          <mxGeometry relative="1" as="geometry">
            <mxPoint x="370" y="1670" as="sourcePoint" />
            <mxPoint x="370" y="1754" as="targetPoint" />
          </mxGeometry>
        </mxCell>
        <mxCell id="vBjpvhSva4mqs9_Zegs--47" value="MOSTRA LINHA" style="strokeWidth=2;html=1;shape=mxgraph.flowchart.display;whiteSpace=wrap;fillColor=#e1d5e7;strokeColor=#9673a6;" vertex="1" parent="WIyWlLk6GJQsqaUBKTNV-1">
          <mxGeometry x="324" y="1690" width="90" height="40" as="geometry" />
        </mxCell>
        <mxCell id="vBjpvhSva4mqs9_Zegs--50" style="edgeStyle=orthogonalEdgeStyle;rounded=0;orthogonalLoop=1;jettySize=auto;html=1;exitX=1;exitY=0.5;exitDx=0;exitDy=0;exitPerimeter=0;entryX=1;entryY=0.5;entryDx=0;entryDy=0;fontSize=12;startSize=8;endSize=8;" edge="1" parent="WIyWlLk6GJQsqaUBKTNV-1" source="vBjpvhSva4mqs9_Zegs--49" target="vBjpvhSva4mqs9_Zegs--42">
          <mxGeometry relative="1" as="geometry" />
        </mxCell>
        <mxCell id="vBjpvhSva4mqs9_Zegs--49" value="MATRIZ-C[LINHA][COLUNA]" style="strokeWidth=2;html=1;shape=mxgraph.flowchart.display;whiteSpace=wrap;fillColor=#e1d5e7;strokeColor=#9673a6;" vertex="1" parent="WIyWlLk6GJQsqaUBKTNV-1">
          <mxGeometry x="274" y="1830" width="190" height="60" as="geometry" />
        </mxCell>
        <mxCell id="vBjpvhSva4mqs9_Zegs--53" value="" style="edgeStyle=none;curved=1;rounded=0;orthogonalLoop=1;jettySize=auto;html=1;fontSize=12;startSize=8;endSize=8;" edge="1" parent="WIyWlLk6GJQsqaUBKTNV-1" source="vBjpvhSva4mqs9_Zegs--51" target="vBjpvhSva4mqs9_Zegs--1">
          <mxGeometry relative="1" as="geometry" />
        </mxCell>
        <mxCell id="vBjpvhSva4mqs9_Zegs--51" value="" style="verticalLabelPosition=bottom;verticalAlign=top;html=1;shape=mxgraph.flowchart.on-page_reference;fillColor=#f5f5f5;gradientColor=#b3b3b3;strokeColor=#666666;" vertex="1" parent="WIyWlLk6GJQsqaUBKTNV-1">
          <mxGeometry x="349" y="1930" width="40" height="40" as="geometry" />
        </mxCell>
        <mxCell id="vBjpvhSva4mqs9_Zegs--52" style="edgeStyle=orthogonalEdgeStyle;rounded=0;orthogonalLoop=1;jettySize=auto;html=1;exitX=1;exitY=0.5;exitDx=0;exitDy=0;entryX=1;entryY=0.5;entryDx=0;entryDy=0;entryPerimeter=0;fontSize=12;startSize=8;endSize=8;" edge="1" parent="WIyWlLk6GJQsqaUBKTNV-1" source="vBjpvhSva4mqs9_Zegs--44" target="vBjpvhSva4mqs9_Zegs--51">
          <mxGeometry relative="1" as="geometry">
            <Array as="points">
              <mxPoint x="540" y="1645" />
              <mxPoint x="540" y="1950" />
            </Array>
          </mxGeometry>
        </mxCell>
      </root>
    </mxGraphModel>
  </diagram>
</mxfile>
